<svg width="22" height="22" viewBox="0 0 22 22" fill="none" xmlns="http://www.w3.org/2000/svg">
<path d="M3.66536 18.3346C3.1612 18.3346 2.72975 18.1553 2.37103 17.7966C2.01231 17.4378 1.83264 17.0061 1.83203 16.5013V5.5013C1.83203 4.99714 2.0117 4.56569 2.37103 4.20697C2.73036 3.84825 3.16181 3.66858 3.66536 3.66797L5.15495 6.64714C5.26189 6.86102 5.41467 7.02908 5.61328 7.1513C5.81189 7.27352 6.02578 7.33464 6.25495 7.33464C6.71328 7.33464 7.06467 7.13969 7.30911 6.7498C7.55356 6.35991 7.56884 5.95902 7.35495 5.54714L6.41536 3.66797H8.2487L9.73828 6.64714C9.84523 6.86102 9.998 7.02908 10.1966 7.1513C10.3952 7.27352 10.6091 7.33464 10.8383 7.33464C11.2966 7.33464 11.648 7.13969 11.8924 6.7498C12.1369 6.35991 12.1522 5.95902 11.9383 5.54714L10.9987 3.66797H12.832L14.3216 6.64714C14.4286 6.86102 14.5813 7.02908 14.7799 7.1513C14.9786 7.27352 15.1924 7.33464 15.4216 7.33464C15.8799 7.33464 16.2313 7.13969 16.4758 6.7498C16.7202 6.35991 16.7355 5.95902 16.5216 5.54714L15.582 3.66797H18.332C18.8362 3.66797 19.2679 3.84733 19.6273 4.20605C19.9866 4.56477 20.166 4.99652 20.1654 5.5013V8.6638C20.1654 8.84714 20.089 8.99227 19.9362 9.09922C19.7834 9.20616 19.6154 9.23672 19.432 9.19088C18.9279 9.09922 18.4274 9.1258 17.9305 9.27064C17.4337 9.41547 16.987 9.6868 16.5904 10.0846L11.5258 15.1492C11.3577 15.3173 11.2279 15.5122 11.1362 15.7341C11.0445 15.9559 10.9987 16.1887 10.9987 16.4326V17.418C10.9987 17.6777 10.9107 17.8956 10.7347 18.0716C10.5587 18.2476 10.3411 18.3352 10.082 18.3346H3.66536ZM12.832 18.3346V16.8221C12.832 16.6999 12.8549 16.5817 12.9008 16.4674C12.9466 16.3531 13.0154 16.2498 13.107 16.1576L17.8966 11.3909C18.0341 11.2534 18.1869 11.1541 18.3549 11.093C18.523 11.0319 18.6911 11.0013 18.8591 11.0013C19.0424 11.0013 19.2181 11.0358 19.3862 11.1049C19.5543 11.1739 19.707 11.2769 19.8445 11.4138L20.6924 12.2617C20.8147 12.3992 20.9103 12.552 20.9794 12.7201C21.0484 12.8881 21.0826 13.0562 21.082 13.2242C21.0814 13.3923 21.0509 13.5643 20.9904 13.7403C20.9299 13.9163 20.8306 14.0727 20.6924 14.2096L15.9258 18.9763C15.8341 19.068 15.7311 19.1367 15.6169 19.1826C15.5026 19.2284 15.384 19.2513 15.2612 19.2513H13.7487C13.489 19.2513 13.2714 19.1636 13.096 18.9882C12.9206 18.8128 12.8326 18.595 12.832 18.3346ZM18.8591 14.118L19.707 13.2242L18.8591 12.3763L17.9883 13.2471L18.8591 14.118Z" fill="black"/>
</svg>
