<svg width="20" height="19" viewBox="0 0 20 19" fill="none" xmlns="http://www.w3.org/2000/svg">
<g clip-path="url(#clip0_57_17525)">
<path d="M13.8311 2.81508V1.58008C13.8311 1.2555 13.5613 0.986328 13.2359 0.986328C12.9104 0.986328 12.6406 1.2555 12.6406 1.58008V2.76758H7.4819V1.58008C7.4819 1.2555 7.21205 0.986328 6.88666 0.986328C6.56126 0.986328 6.29142 1.2555 6.29142 1.58008V2.81508C4.14856 3.01299 3.10888 4.28758 2.95014 6.17967C2.93428 6.40924 3.12475 6.59924 3.34697 6.59924H16.7756C17.0057 6.59924 17.1962 6.40133 17.1723 6.17967C17.0137 4.28758 15.974 3.01299 13.8311 2.81508Z" fill="#333548" fill-opacity="0.75"/>
<path opacity="0.4" d="M16.4139 7.79297C16.8505 7.79297 17.2076 8.14922 17.2076 8.58464V13.4613C17.2076 15.8363 16.0172 17.4197 13.2394 17.4197H6.89013C4.11235 17.4197 2.92188 15.8363 2.92188 13.4613V8.58464C2.92188 8.14922 3.27902 7.79297 3.71552 7.79297H16.4139Z" fill="#333548" fill-opacity="0.75"/>
<path d="M7.28584 11.8774C7.07949 11.8774 6.87314 11.7903 6.72235 11.6478C6.57949 11.4974 6.49219 11.2915 6.49219 11.0858C6.49219 10.8799 6.57949 10.674 6.72235 10.5236C6.94457 10.302 7.29378 10.2307 7.58743 10.3574C7.6906 10.3969 7.7779 10.4524 7.84933 10.5236C7.99219 10.674 8.07949 10.8799 8.07949 11.0858C8.07949 11.2915 7.99219 11.4974 7.84933 11.6478C7.69854 11.7903 7.49219 11.8774 7.28584 11.8774Z" fill="#333548" fill-opacity="0.75"/>
<path d="M10.0631 11.8774C9.85686 11.8774 9.65047 11.7903 9.49969 11.6478C9.35684 11.4974 9.26953 11.2915 9.26953 11.0858C9.26953 10.8799 9.35684 10.674 9.49969 10.5236C9.57114 10.4524 9.65838 10.3969 9.76162 10.3574C10.0552 10.2307 10.4045 10.302 10.6267 10.5236C10.7695 10.674 10.8569 10.8799 10.8569 11.0858C10.8569 11.2915 10.7695 11.4974 10.6267 11.6478C10.587 11.6794 10.5473 11.7111 10.5076 11.7428C10.46 11.7744 10.4124 11.7983 10.3648 11.814C10.3171 11.8378 10.2695 11.8536 10.2219 11.8615C10.1664 11.8695 10.1188 11.8774 10.0631 11.8774Z" fill="#333548" fill-opacity="0.75"/>
<path d="M12.8444 11.8782C12.6381 11.8782 12.4317 11.7911 12.281 11.6486C12.1381 11.4982 12.0508 11.2924 12.0508 11.0866C12.0508 10.8807 12.1381 10.675 12.281 10.5245C12.3603 10.4532 12.4396 10.3979 12.5429 10.3582C12.6857 10.2949 12.8444 10.2791 13.0032 10.3107C13.0508 10.3186 13.0984 10.3345 13.146 10.3582C13.1936 10.3741 13.2413 10.3979 13.2889 10.4295C13.3286 10.4612 13.3682 10.4929 13.4079 10.5245C13.5508 10.675 13.6381 10.8807 13.6381 11.0866C13.6381 11.2924 13.5508 11.4982 13.4079 11.6486C13.3682 11.6804 13.3286 11.712 13.2889 11.7436C13.2413 11.7754 13.1936 11.7991 13.146 11.815C13.0984 11.8387 13.0508 11.8545 13.0032 11.8625C12.9476 11.8704 12.892 11.8782 12.8444 11.8782Z" fill="#333548" fill-opacity="0.75"/>
<path d="M7.28584 14.6459C7.18266 14.6459 7.07949 14.6221 6.98425 14.5825C6.88107 14.543 6.80171 14.4875 6.72235 14.4163C6.57949 14.2659 6.49219 14.06 6.49219 13.8541C6.49219 13.6484 6.57949 13.4425 6.72235 13.2921C6.80171 13.2209 6.88107 13.1654 6.98425 13.1259C7.12711 13.0625 7.28584 13.0466 7.44457 13.0784C7.49219 13.0863 7.53981 13.1021 7.58743 13.1259C7.63504 13.1416 7.68266 13.1655 7.73028 13.1971C7.76997 13.2288 7.80964 13.2605 7.84933 13.2921C7.99219 13.4425 8.07949 13.6484 8.07949 13.8541C8.07949 14.06 7.99219 14.2659 7.84933 14.4163C7.80964 14.4479 7.76997 14.4875 7.73028 14.5113C7.68266 14.5429 7.63504 14.5667 7.58743 14.5825C7.53981 14.6063 7.49219 14.6221 7.44457 14.63C7.38902 14.638 7.3414 14.6459 7.28584 14.6459Z" fill="#333548" fill-opacity="0.75"/>
<path d="M10.0631 14.6438C9.85686 14.6438 9.65047 14.5567 9.49969 14.4142C9.35684 14.2637 9.26953 14.0579 9.26953 13.8521C9.26953 13.6463 9.35684 13.4404 9.49969 13.29C9.79333 12.9971 10.333 12.9971 10.6267 13.29C10.7695 13.4404 10.8569 13.6463 10.8569 13.8521C10.8569 14.0579 10.7695 14.2637 10.6267 14.4142C10.4759 14.5567 10.2695 14.6438 10.0631 14.6438Z" fill="#333548" fill-opacity="0.75"/>
<path d="M12.8444 14.6438C12.6381 14.6438 12.4317 14.5567 12.281 14.4142C12.1381 14.2637 12.0508 14.0579 12.0508 13.8521C12.0508 13.6463 12.1381 13.4404 12.281 13.29C12.5746 12.9971 13.1143 12.9971 13.4079 13.29C13.5508 13.4404 13.6381 13.6463 13.6381 13.8521C13.6381 14.0579 13.5508 14.2637 13.4079 14.4142C13.2572 14.5567 13.0508 14.6438 12.8444 14.6438Z" fill="#333548" fill-opacity="0.75"/>
</g>
<defs>
<clipPath id="clip0_57_17525">
<rect width="20" height="19" fill="white"/>
</clipPath>
</defs>
</svg>
