<svg width="36" height="36" viewBox="0 0 36 36" fill="none" xmlns="http://www.w3.org/2000/svg">
<path d="M18 33C26.2843 33 33 26.2843 33 18C33 9.71573 26.2843 3 18 3C9.71573 3 3 9.71573 3 18C3 26.2843 9.71573 33 18 33Z" stroke="black" stroke-width="1.5" stroke-linecap="round" stroke-linejoin="round"/>
<path d="M24 23.4L23.596 23.1C22.5187 22.3 21.2508 22.3 20.1736 23.1L19.7697 23.4C18.6924 24.1999 17.4245 24.1999 16.3473 23.4L15.9432 23.1C14.866 22.3 13.5981 22.3 12.5208 23.1L12 23.4868" stroke="black" stroke-width="1.5" stroke-linecap="round" stroke-linejoin="round"/>
<path d="M12.0135 13.5H12M24 13.5H23.9865" stroke="black" stroke-width="2" stroke-linecap="round" stroke-linejoin="round"/>
</svg>
