<svg width="36" height="36" viewBox="0 0 36 36" fill="none" xmlns="http://www.w3.org/2000/svg">
<path d="M18.75 12L15 18H21L17.25 24" stroke="black" stroke-width="1.5" stroke-linecap="round" stroke-linejoin="round"/>
<path d="M31.5165 21.2086C32.2993 20.9932 32.6909 20.8855 32.8454 20.6796C33 20.4736 33 20.1423 33 19.4797V16.5204C33 15.8578 33 15.5265 32.8454 15.3205C32.6907 15.1146 32.2993 15.0069 31.5165 14.7915C28.5909 13.9865 26.7598 10.8657 27.5149 7.90021C27.7225 7.08466 27.8264 6.67689 27.7272 6.43773C27.6281 6.19857 27.3437 6.03375 26.7746 5.70412L24.1875 4.20544C23.6292 3.882 23.3501 3.72027 23.0996 3.75471C22.8489 3.78915 22.5663 4.07688 22.0008 4.65235C19.812 6.88033 16.1904 6.88024 14.0015 4.6522C13.4361 4.07673 13.1535 3.789 12.9029 3.75456C12.6523 3.72012 12.3732 3.88185 11.8148 4.20529L9.22776 5.70399C8.6588 6.03358 8.3743 6.19839 8.27517 6.43752C8.17602 6.67665 8.2798 7.08447 8.48737 7.90011C9.24205 10.8657 7.40958 13.9865 4.48353 14.7915C3.70068 15.0069 3.30926 15.1146 3.15462 15.3205C3 15.5265 3 15.8577 3 16.5204V19.4797C3 20.1423 3 20.4736 3.15462 20.6796C3.30923 20.8855 3.70067 20.9932 4.48353 21.2086C7.4091 22.0137 9.24012 25.1344 8.48508 28.0999C8.27744 28.9155 8.17361 29.3232 8.27274 29.5624C8.37189 29.8015 8.65638 29.9664 9.22537 30.2959L11.8124 31.7947C12.3708 32.1181 12.65 32.2798 12.9006 32.2455C13.1512 32.211 13.4338 31.9231 13.9991 31.3477C16.1891 29.1178 19.8132 29.1178 22.0033 31.3476C22.5685 31.9231 22.8512 32.2108 23.1018 32.2453C23.3523 32.2797 23.6316 32.118 24.1899 31.7946L26.7769 30.2958C27.346 29.9662 27.6306 29.8014 27.7296 29.5621C27.8288 29.323 27.725 28.9152 27.5172 28.0998C26.7618 25.1344 28.5913 22.0137 31.5165 21.2086Z" stroke="black" stroke-width="1.5" stroke-linecap="round"/>
</svg>
