<svg width="18" height="15" viewBox="0 0 18 15" fill="none" xmlns="http://www.w3.org/2000/svg">
<g clip-path="url(#clip0_57_29163)">
<g clip-path="url(#clip1_57_29163)">
<path fill-rule="evenodd" clip-rule="evenodd" d="M17.8614 1.35491C17.8614 1.03286 17.7334 0.724004 17.5057 0.496281C17.278 0.268559 16.9691 0.140625 16.6471 0.140625H2.07562C1.75357 0.140625 1.44471 0.268559 1.21699 0.496281C0.98926 0.724004 0.861328 1.03286 0.861328 1.35491C0.861328 1.67696 0.98926 1.98582 1.21699 2.21354C1.44471 2.44126 1.75357 2.5692 2.07562 2.5692H16.6471C16.9691 2.5692 17.278 2.44126 17.5057 2.21354C17.7334 1.98582 17.8614 1.67696 17.8614 1.35491Z" fill="#28643B"/>
<path fill-rule="evenodd" clip-rule="evenodd" d="M17.8614 7.42522C17.8614 7.10317 17.7334 6.79432 17.5057 6.56659C17.278 6.33887 16.9691 6.21094 16.6471 6.21094H2.07562C1.75357 6.21094 1.44471 6.33887 1.21699 6.56659C0.98926 6.79432 0.861328 7.10317 0.861328 7.42522C0.861328 7.74727 0.98926 8.05613 1.21699 8.28385C1.44471 8.51158 1.75357 8.63951 2.07562 8.63951H16.6471C16.9691 8.63951 17.278 8.51158 17.5057 8.28385C17.7334 8.05613 17.8614 7.74727 17.8614 7.42522Z" fill="#28643B"/>
<path fill-rule="evenodd" clip-rule="evenodd" d="M17.8608 13.4955C17.8608 13.1735 17.7328 12.8646 17.5051 12.6369C17.2774 12.4092 16.9685 12.2812 16.6465 12.2812H9.36076C9.03871 12.2812 8.72986 12.4092 8.50213 12.6369C8.27441 12.8646 8.14648 13.1735 8.14648 13.4955C8.14648 13.8176 8.27441 14.1264 8.50213 14.3542C8.72986 14.5819 9.03871 14.7098 9.36076 14.7098H16.6465C16.9685 14.7098 17.2774 14.5819 17.5051 14.3542C17.7328 14.1264 17.8608 13.8176 17.8608 13.4955Z" fill="#28643B"/>
</g>
</g>
<defs>
<clipPath id="clip0_57_29163">
<rect width="18" height="15" fill="white"/>
</clipPath>
<clipPath id="clip1_57_29163">
<rect width="18" height="15" fill="white"/>
</clipPath>
</defs>
</svg>
