<svg width="24" height="24" viewBox="0 0 24 24" fill="none" xmlns="http://www.w3.org/2000/svg">
<path opacity="0.4" d="M20.4012 16.3269C20.1212 17.0769 19.5312 17.6469 18.7612 17.9069C17.6812 18.2669 16.5712 18.5369 15.4512 18.7269C15.3412 18.7469 15.2312 18.7669 15.1212 18.7769C14.9412 18.8069 14.7612 18.8269 14.5812 18.8469C14.3612 18.8769 14.1312 18.8969 13.9012 18.9169C13.2712 18.9669 12.6512 18.9969 12.0212 18.9969C11.3812 18.9969 10.7412 18.9669 10.1112 18.9069C9.84118 18.8869 9.58118 18.8569 9.32118 18.8169C9.17118 18.7969 9.02118 18.7769 8.88118 18.7569C8.77118 18.7369 8.66118 18.7269 8.55118 18.7069C7.44118 18.5269 6.34118 18.2569 5.27118 17.8969C4.47118 17.6269 3.86118 17.0569 3.59118 16.3269C3.32118 15.6069 3.42118 14.7669 3.85118 14.0469L4.98118 12.1669C5.22118 11.7569 5.44118 10.9669 5.44118 10.4869V8.62687C5.44118 4.99687 8.39118 2.04688 12.0212 2.04688C15.6412 2.04688 18.5912 4.99687 18.5912 8.62687V10.4869C18.5912 10.9669 18.8112 11.7569 19.0612 12.1669L20.1912 14.0469C20.6012 14.7469 20.6812 15.5669 20.4012 16.3269Z" fill="#28643B"/>
<path d="M11.9983 10.7606C11.5783 10.7606 11.2383 10.4206 11.2383 10.0006V6.90063C11.2383 6.48063 11.5783 6.14062 11.9983 6.14062C12.4183 6.14062 12.7583 6.48063 12.7583 6.90063V10.0006C12.7483 10.4206 12.4083 10.7606 11.9983 10.7606Z" fill="#28643B"/>
<path d="M14.8297 20.01C14.4097 21.17 13.2997 22 11.9997 22C11.2097 22 10.4297 21.68 9.87969 21.11C9.55969 20.81 9.31969 20.41 9.17969 20C9.30969 20.02 9.43969 20.03 9.57969 20.05C9.80969 20.08 10.0497 20.11 10.2897 20.13C10.8597 20.18 11.4397 20.21 12.0197 20.21C12.5897 20.21 13.1597 20.18 13.7197 20.13C13.9297 20.11 14.1397 20.1 14.3397 20.07C14.4997 20.05 14.6597 20.03 14.8297 20.01Z" fill="#28643B"/>
</svg>
