<svg width="21" height="20" viewBox="0 0 21 20" fill="none" xmlns="http://www.w3.org/2000/svg">
<g clip-path="url(#clip0_57_17494)">
<g clip-path="url(#clip1_57_17494)">
<path d="M18.4817 9.08073V3.41406C18.4817 2.16406 17.9484 1.66406 16.6234 1.66406H13.2567C11.9317 1.66406 11.3984 2.16406 11.3984 3.41406V9.08073C11.3984 10.3307 11.9317 10.8307 13.2567 10.8307H16.6234C17.9484 10.8307 18.4817 10.3307 18.4817 9.08073Z" fill="#333548" fill-opacity="0.75"/>
<path d="M9.73178 10.9141V16.5807C9.73178 17.8307 9.19844 18.3307 7.87344 18.3307H4.50678C3.18178 18.3307 2.64844 17.8307 2.64844 16.5807V10.9141C2.64844 9.66406 3.18178 9.16406 4.50678 9.16406H7.87344C9.19844 9.16406 9.73178 9.66406 9.73178 10.9141Z" fill="#333548" fill-opacity="0.75"/>
<path opacity="0.4" d="M18.4817 16.5833V14.25C18.4817 13 17.9484 12.5 16.6234 12.5H13.2567C11.9317 12.5 11.3984 13 11.3984 14.25V16.5833C11.3984 17.8333 11.9317 18.3333 13.2567 18.3333H16.6234C17.9484 18.3333 18.4817 17.8333 18.4817 16.5833Z" fill="#333548" fill-opacity="0.75"/>
<path opacity="0.4" d="M9.73178 5.7474V3.41406C9.73178 2.16406 9.19844 1.66406 7.87344 1.66406H4.50678C3.18178 1.66406 2.64844 2.16406 2.64844 3.41406V5.7474C2.64844 6.9974 3.18178 7.4974 4.50678 7.4974H7.87344C9.19844 7.4974 9.73178 6.9974 9.73178 5.7474Z" fill="#333548" fill-opacity="0.75"/>
</g>
</g>
<defs>
<clipPath id="clip0_57_17494">
<rect width="21" height="20" fill="white"/>
</clipPath>
<clipPath id="clip1_57_17494">
<rect width="21" height="20" fill="white"/>
</clipPath>
</defs>
</svg>
