<svg width="20" height="20" viewBox="0 0 20 20" fill="none" xmlns="http://www.w3.org/2000/svg">
<g clip-path="url(#clip0_57_17504)">
<path d="M10.0539 1.66602C7.95791 1.66602 6.25391 3.44102 6.25391 5.62435C6.25391 7.76602 7.86191 9.49935 9.95795 9.57435C10.0219 9.56602 10.0859 9.56602 10.1339 9.57435C10.1499 9.57435 10.1579 9.57435 10.1739 9.57435C10.1819 9.57435 10.1819 9.57435 10.1899 9.57435C12.2379 9.49935 13.8459 7.76602 13.8539 5.62435C13.8539 3.44102 12.1499 1.66602 10.0539 1.66602Z" fill="#333548" fill-opacity="0.75"/>
<path opacity="0.4" d="M14.1179 11.7934C11.8859 10.2434 8.24587 10.2434 5.99788 11.7934C4.98188 12.5017 4.42188 13.46 4.42188 14.485C4.42188 15.51 4.98188 16.46 5.98988 17.16C7.10987 17.9434 8.58187 18.335 10.0539 18.335C11.5259 18.335 12.9979 17.9434 14.1179 17.16C15.1259 16.4517 15.6859 15.5017 15.6859 14.4684C15.6779 13.4434 15.1259 12.4934 14.1179 11.7934Z" fill="#333548" fill-opacity="0.75"/>
<path d="M11.6516 13.86H10.6516V12.8184C10.6516 12.4767 10.3796 12.1934 10.0516 12.1934C9.7236 12.1934 9.4516 12.4767 9.4516 12.8184V13.86H8.4516C8.1236 13.86 7.85156 14.1434 7.85156 14.485C7.85156 14.8267 8.1236 15.11 8.4516 15.11H9.4516V16.1517C9.4516 16.4934 9.7236 16.7767 10.0516 16.7767C10.3796 16.7767 10.6516 16.4934 10.6516 16.1517V15.11H11.6516C11.9796 15.11 12.2516 14.8267 12.2516 14.485C12.2516 14.1434 11.9796 13.86 11.6516 13.86Z" fill="#333548" fill-opacity="0.75"/>
</g>
<defs>
<clipPath id="clip0_57_17504">
<rect width="20" height="20" fill="white"/>
</clipPath>
</defs>
</svg>
