<svg width="20" height="19" viewBox="0 0 20 19" fill="none" xmlns="http://www.w3.org/2000/svg">
<g clip-path="url(#clip0_57_17512)">
<g clip-path="url(#clip1_57_17512)">
<path opacity="0.4" d="M14.4604 6.1519C14.4048 6.14398 14.349 6.14398 14.2934 6.1519C13.0604 6.11232 12.082 5.1069 12.082 3.8719C12.082 2.61315 13.1081 1.58398 14.3808 1.58398C15.6457 1.58398 16.6798 2.60523 16.6798 3.8719C16.6718 5.1069 15.6934 6.11232 14.4604 6.1519Z" fill="#474856" fill-opacity="0.75"/>
<path opacity="0.4" d="M17.0518 11.6388C16.1608 12.2326 14.9119 12.4542 13.7586 12.3038C14.0608 11.6546 14.2199 10.9342 14.2278 10.1742C14.2278 9.38256 14.0528 8.63046 13.7188 7.97338C14.896 7.81505 16.1449 8.0367 17.0438 8.63045C18.3006 9.45377 18.3006 10.8076 17.0518 11.6388Z" fill="#474856" fill-opacity="0.75"/>
<path opacity="0.4" d="M5.64119 6.1519C5.69688 6.14398 5.75256 6.14398 5.80824 6.1519C7.04119 6.11232 8.0196 5.1069 8.0196 3.8719C8.0196 2.61315 6.99347 1.58398 5.72074 1.58398C4.45597 1.58398 3.42188 2.60523 3.42188 3.8719C3.42983 5.1069 4.40824 6.11232 5.64119 6.1519Z" fill="#474856" fill-opacity="0.75"/>
<path opacity="0.4" d="M5.72486 10.1743C5.72486 10.9423 5.8919 11.6706 6.19418 12.3277C5.07259 12.4464 3.90327 12.2089 3.04418 11.6468C1.78736 10.8156 1.78736 9.46182 3.04418 8.6306C3.89531 8.0606 5.09645 7.83103 6.22599 7.9577C5.89986 8.6227 5.72486 9.37478 5.72486 10.1743Z" fill="#474856" fill-opacity="0.75"/>
<path d="M10.1562 12.5637C10.0925 12.5558 10.021 12.5558 9.94936 12.5637C8.48573 12.5162 7.31641 11.3208 7.31641 9.84833C7.31641 8.34417 8.53345 7.125 10.0528 7.125C11.5642 7.125 12.7892 8.34417 12.7892 9.84833C12.7892 11.3208 11.6278 12.5162 10.1562 12.5637Z" fill="#474856" fill-opacity="0.75"/>
<path d="M7.56882 14.2043C6.36768 15.0039 6.36768 16.318 7.56882 17.1097C8.937 18.0202 11.1801 18.0202 12.5483 17.1097C13.7495 16.3102 13.7495 14.996 12.5483 14.2043C11.1881 13.2939 8.94496 13.2939 7.56882 14.2043Z" fill="#474856" fill-opacity="0.75"/>
</g>
</g>
<defs>
<clipPath id="clip0_57_17512">
<rect width="20" height="19" fill="white"/>
</clipPath>
<clipPath id="clip1_57_17512">
<rect width="20" height="19" fill="white"/>
</clipPath>
</defs>
</svg>
