<svg width="26" height="26" viewBox="0 0 26 26" fill="none" xmlns="http://www.w3.org/2000/svg">
<g clip-path="url(#clip0_57_28582)">
<g clip-path="url(#clip1_57_28582)">
<path opacity="0.4" d="M19.3859 14.5612C18.9346 15.0018 18.6767 15.6359 18.7411 16.3129C18.8379 17.4736 19.9018 18.3226 21.0624 18.3226H23.1043V19.6014C23.1043 21.826 21.2881 23.6422 19.0635 23.6422H6.72631C4.50174 23.6422 2.68555 21.826 2.68555 19.6014V12.3689C2.68555 10.1443 4.50174 8.32812 6.72631 8.32812H19.0635C21.2881 8.32812 23.1043 10.1443 23.1043 12.3689V13.9164H20.9335C20.3316 13.9164 19.7836 14.1528 19.3859 14.5612Z" fill="#3A643B"/>
<path d="M15.9577 4.24196V8.3257H6.72631C4.50174 8.3257 2.68555 10.1419 2.68555 12.3665V8.42246C2.68555 7.1436 3.47006 6.00439 4.66294 5.55303L13.1958 2.32901C14.5284 1.83467 15.9577 2.81265 15.9577 4.24196Z" fill="#3A643B"/>
<path d="M24.2445 15.018V17.2319C24.2445 17.8229 23.7717 18.3065 23.1699 18.328H21.0635C19.9029 18.328 18.8389 17.479 18.7422 16.3184C18.6777 15.6413 18.9357 15.0073 19.387 14.5667C19.7847 14.1583 20.3327 13.9219 20.9346 13.9219H23.1699C23.7717 13.9434 24.2445 14.427 24.2445 15.018Z" fill="#3A643B"/>
<path d="M15.0455 13.7019H7.5228C7.08219 13.7019 6.7168 13.3365 6.7168 12.8958C6.7168 12.4552 7.08219 12.0898 7.5228 12.0898H15.0455C15.4861 12.0898 15.8515 12.4552 15.8515 12.8958C15.8515 13.3365 15.4861 13.7019 15.0455 13.7019Z" fill="#3A643B"/>
</g>
</g>
<defs>
<clipPath id="clip0_57_28582">
<rect width="25.7921" height="25.7921" fill="white"/>
</clipPath>
<clipPath id="clip1_57_28582">
<rect width="25.7921" height="25.7921" fill="white"/>
</clipPath>
</defs>
</svg>
