<svg width="20" height="20" viewBox="0 0 20 20" fill="none" xmlns="http://www.w3.org/2000/svg">
<path opacity="0.4" d="M9.17435 16.6807C13.3211 16.6807 16.6827 13.3191 16.6827 9.1724C16.6827 5.02566 13.3211 1.66406 9.17435 1.66406C5.02761 1.66406 1.66602 5.02566 1.66602 9.1724C1.66602 13.3191 5.02761 16.6807 9.17435 16.6807Z" fill="#28643B"/>
<path d="M18.3248 15.7917C18.0498 15.2833 17.4664 15 16.6831 15C16.0914 15 15.5831 15.2417 15.2831 15.6583C14.9831 16.075 14.9164 16.6333 15.0998 17.1917C15.4581 18.275 16.0831 18.5167 16.4248 18.5583C16.4748 18.5667 16.5248 18.5667 16.5831 18.5667C16.9498 18.5667 17.5164 18.4083 18.0664 17.5833C18.5081 16.9417 18.5914 16.3 18.3248 15.7917Z" fill="#28643B"/>
</svg>
