<svg width="25" height="26" viewBox="0 0 25 26" fill="none" xmlns="http://www.w3.org/2000/svg">
<path opacity="0.4" d="M2.08203 13.9129V12.0796C2.08203 10.9963 2.96745 10.1004 4.0612 10.1004C5.94662 10.1004 6.71745 8.76708 5.76953 7.13167C5.22787 6.19417 5.55078 4.97542 6.4987 4.43375L8.30078 3.4025C9.1237 2.91292 10.1862 3.20458 10.6758 4.0275L10.7904 4.22542C11.7279 5.86083 13.2696 5.86083 14.2175 4.22542L14.3321 4.0275C14.8216 3.20458 15.8841 2.91292 16.7071 3.4025L18.5091 4.43375C19.4571 4.97542 19.78 6.19417 19.2383 7.13167C18.2904 8.76708 19.0612 10.1004 20.9466 10.1004C22.03 10.1004 22.9258 10.9858 22.9258 12.0796V13.9129C22.9258 14.9963 22.0404 15.8921 20.9466 15.8921C19.0612 15.8921 18.2904 17.2254 19.2383 18.8608C19.78 19.8088 19.4571 21.0171 18.5091 21.5588L16.7071 22.59C15.8841 23.0796 14.8216 22.7879 14.3321 21.965L14.2175 21.7671C13.28 20.1317 11.7383 20.1317 10.7904 21.7671L10.6758 21.965C10.1862 22.7879 9.1237 23.0796 8.30078 22.59L6.4987 21.5588C5.55078 21.0171 5.22787 19.7983 5.76953 18.8608C6.71745 17.2254 5.94662 15.8921 4.0612 15.8921C2.96745 15.8921 2.08203 14.9963 2.08203 13.9129Z" fill="#28643B"/>
<path d="M12.4987 16.388C14.3684 16.388 15.8841 14.8723 15.8841 13.0026C15.8841 11.1329 14.3684 9.61719 12.4987 9.61719C10.629 9.61719 9.11328 11.1329 9.11328 13.0026C9.11328 14.8723 10.629 16.388 12.4987 16.388Z" fill="#28643B"/>
</svg>
