<svg width="20" height="20" viewBox="0 0 20 20" fill="none" xmlns="http://www.w3.org/2000/svg">
<g clip-path="url(#clip0_57_17538)">
<g clip-path="url(#clip1_57_17538)">
<path opacity="0.4" d="M13.493 1.66406H6.50964C3.47631 1.66406 1.66797 3.4724 1.66797 6.50573V13.4807C1.66797 16.5224 3.47631 18.3307 6.50964 18.3307H13.4847C16.518 18.3307 18.3263 16.5224 18.3263 13.4891V6.50573C18.3347 3.4724 16.5263 1.66406 13.493 1.66406Z" fill="#474856" fill-opacity="0.75"/>
<path opacity="0.97" d="M9.99792 8.58958C10.6009 8.58958 11.0896 8.10083 11.0896 7.49792C11.0896 6.89501 10.6009 6.40625 9.99792 6.40625C9.39501 6.40625 8.90625 6.89501 8.90625 7.49792C8.90625 8.10083 9.39501 8.58958 9.99792 8.58958Z" fill="#474856" fill-opacity="0.75"/>
<path opacity="0.97" d="M6.92369 11.4062C6.32369 11.4062 5.83203 11.8979 5.83203 12.4979C5.83203 13.0979 6.32369 13.5896 6.92369 13.5896C7.52369 13.5896 8.01536 13.0979 8.01536 12.4979C8.01536 11.8979 7.52369 11.4062 6.92369 11.4062Z" fill="#474856" fill-opacity="0.75"/>
<path opacity="0.97" d="M13.076 11.4062C12.476 11.4062 11.9844 11.8979 11.9844 12.4979C11.9844 13.0979 12.476 13.5896 13.076 13.5896C13.676 13.5896 14.1677 13.0979 14.1677 12.4979C14.1677 11.8979 13.676 11.4062 13.076 11.4062Z" fill="#474856" fill-opacity="0.75"/>
</g>
</g>
<defs>
<clipPath id="clip0_57_17538">
<rect width="20" height="20" fill="white"/>
</clipPath>
<clipPath id="clip1_57_17538">
<rect width="20" height="20" fill="white"/>
</clipPath>
</defs>
</svg>
